<svg width="199" height="32" viewBox="0 0 199 32" fill="none" xmlns="http://www.w3.org/2000/svg">
  <path d="M37.9902 25.0801H40.8301V7.30005H37.9902V25.0801Z" fill="currentColor"/>
  <path d="M48.2998 25.3901C51.8998 25.3901 54.3298 22.9001 54.3298 19.1801C54.3298 15.4601 51.8998 12.9901 48.2998 12.9901C44.7298 12.9901 42.2598 15.4601 42.2598 19.1801C42.2598 22.9001 44.7298 25.3901 48.2998 25.3901ZM48.2998 22.9601C46.2898 22.9601 45.0698 21.4901 45.0698 19.1801C45.0698 16.8701 46.2898 15.4001 48.2998 15.4001C50.3098 15.4001 51.5298 16.8701 51.5298 19.1801C51.5298 21.4901 50.3098 22.9601 48.2998 22.9601Z" fill="currentColor"/>
  <path d="M75.3407 25.0801V13.2701H72.5308V20.2101C72.5308 22.0901 71.4708 23.0401 69.9708 23.0401C68.4708 23.0401 67.5908 22.2201 67.5908 20.4201V13.2701H64.7808V21.2101C64.7808 23.9301 66.4208 25.3601 68.9008 25.3601C70.6308 25.3601 71.8807 24.6801 72.4907 23.5601H72.6007V25.0801H75.3407Z" fill="currentColor"/>
  <path d="M88.4395 25.0801H91.2795V18.3601C91.2795 14.9401 89.3595 12.9901 86.1195 12.9901C83.5495 12.9901 81.7895 14.1801 81.0895 16.1601L83.6395 16.8901C84.0495 15.8801 84.9395 15.3201 86.1295 15.3201C87.6395 15.3201 88.4695 16.1201 88.4695 17.5901V18.0201H86.4295C82.9995 18.0201 81.0395 19.2601 81.0395 21.6901C81.0395 24.0201 82.7295 25.3901 85.1995 25.3901C87.0195 25.3901 88.0795 24.6401 88.6695 23.4401H88.7695V25.0801H88.4395ZM86.8295 22.9701C85.4695 22.9701 84.6095 22.3401 84.6095 21.2901C84.6095 20.2201 85.4095 19.7501 87.1995 19.7501H88.4795V20.3501C88.4795 21.9601 87.8295 22.9701 86.8295 22.9701Z" fill="currentColor"/>
  <path d="M94.2793 31.0801H97.0892V23.3301H97.1992C97.7792 24.3601 98.9892 25.3901 101.149 25.3901C104.399 25.3901 106.759 22.8501 106.759 19.1801C106.759 15.4801 104.449 12.9901 101.189 12.9901C98.9292 12.9901 97.7192 14.0901 97.1292 15.1801H96.9592V13.2701H94.2793V31.0801ZM100.689 22.9601C98.6992 22.9601 97.0092 21.4401 97.0092 19.1801C97.0092 16.9201 98.6992 15.4201 100.689 15.4201C102.759 15.4201 104.019 17.0001 104.019 19.1801C104.019 21.3601 102.759 22.9601 100.689 22.9601Z" fill="currentColor"/>
  <path d="M120.26 25.0801V13.2701H117.45V20.2101C117.45 22.0901 116.39 23.0401 114.89 23.0401C113.39 23.0401 112.51 22.2201 112.51 20.4201V13.2701H109.7V21.2101C109.7 23.9301 111.34 25.3601 113.82 25.3601C115.55 25.3601 116.8 24.6801 117.41 23.5601H117.52V25.0801H120.26Z" fill="currentColor"/>
  <path d="M123.029 25.0801H125.839V18.1401C125.839 16.3201 126.809 15.5201 128.029 15.5201C129.209 15.5201 130.019 16.3101 130.019 17.8401V25.0801H132.829V17.8201C132.829 16.2001 133.639 15.5201 134.909 15.5201C136.149 15.5201 136.989 16.2201 136.989 18.0201V25.0801H139.799V17.3301C139.799 14.6201 138.209 12.9901 135.849 12.9901C134.119 12.9901 132.769 13.8101 132.139 15.1501H132.029C131.539 13.8401 130.319 12.9901 128.709 12.9901C127.049 12.9901 125.939 13.7501 125.339 14.8701H125.229V13.2701H123.029V25.0801Z" fill="currentColor"/>
  <path d="M147.279 25.3901C150.159 25.3901 152.039 24.0301 152.599 21.9401L150.029 21.2301C149.639 22.3401 148.659 22.8901 147.299 22.8901C145.329 22.8901 144.019 21.5401 143.969 19.1501H152.749V18.2401C152.749 13.9801 150.099 12.9901 147.109 12.9901C143.479 12.9901 141.149 15.5801 141.149 19.2101C141.149 22.9201 143.469 25.3901 147.279 25.3901ZM143.979 17.0301C144.099 15.4101 145.309 14.3301 147.159 14.3301C148.899 14.3301 150.009 15.3001 150.039 17.0301H143.979Z" fill="currentColor"/>
  <path d="M160.06 25.2701C160.96 25.2701 161.72 25.1301 162.17 24.9701V22.6501C161.86 22.7301 161.45 22.8001 160.91 22.8001C159.77 22.8001 159.19 22.3201 159.19 21.1601V15.5401H162.17V13.2701H159.19V9.89005H156.38V13.2701H154.17V15.5401H156.38V21.8501C156.38 24.1901 157.65 25.2701 160.06 25.2701Z" fill="currentColor"/>
  <path d="M177.68 25.0801V17.7001C177.68 14.6301 175.87 12.9901 172.93 12.9901C170.17 12.9901 168.22 14.6301 168.09 17.0901L170.75 17.3701C170.84 16.2601 171.64 15.4501 172.91 15.4501C174.12 15.4501 174.87 16.1601 174.87 17.3401V18.2201C173.78 18.1601 172.98 18.1601 172.04 18.2201C169.26 18.4001 167.45 19.7101 167.45 21.9901C167.45 24.1901 169.04 25.3901 171.42 25.3901C173.18 25.3901 174.43 24.6301 175.05 23.5301H175.16C175.23 24.1301 175.38 24.6801 175.52 25.0801H178.35C178.06 24.4001 177.68 23.1901 177.68 21.6301V25.0801ZM171.99 22.9701C170.67 22.9701 170.02 22.3701 170.02 21.4001C170.02 20.3601 170.81 19.7601 172.36 19.6301C173.06 19.5701 173.9 19.5701 174.87 19.6301V20.5901C174.87 22.2401 173.52 22.9701 171.99 22.9701Z" fill="currentColor"/>
  <path d="M184.949 25.3901C188.549 25.3901 190.979 22.9001 190.979 19.1801C190.979 15.4601 188.549 12.9901 184.949 12.9901C181.379 12.9901 178.909 15.4601 178.909 19.1801C178.909 22.9001 181.379 25.3901 184.949 25.3901ZM184.949 22.9601C182.939 22.9601 181.719 21.4901 181.719 19.1801C181.719 16.8701 182.939 15.4001 184.949 15.4001C186.959 15.4001 188.179 16.8701 188.179 19.1801C188.179 21.4901 186.959 22.9601 184.949 22.9601Z" fill="currentColor"/>
  <path d="M198.721 25.0801V7.30005H195.911V25.0801H198.721Z" fill="currentColor"/>
  <path d="M22.2407 4.78997L21.8907 4.24997C21.3606 3.48997 20.4206 3.08997 19.5506 3.24997L4.07064 6.46997C2.88064 6.68997 1.95064 7.64997 1.79064 8.85997L0.0106375 21.02C-0.169362 22.42 0.590638 23.74 1.85064 24.32L2.19064 24.48L22.2407 4.78997Z" fill="#FC682B"/>
  <path d="M31.6895 21.09L29.9095 8.93C29.7495 7.72 28.8195 6.76 27.6295 6.54L12.1495 3.32C11.2895 3.15 10.3495 3.55 9.80953 4.31L9.45953 4.86L29.5095 24.55L29.8495 24.4C31.1095 23.81 31.8695 22.49 31.6895 21.09Z" fill="#FDAE47"/>
  <path d="M29.5061 24.5469L9.4661 4.8469L2.19611 24.4969L29.5061 24.5469Z" fill="#F65229"/>
  <path d="M18.1875 16.6367C18.7175 17.1667 18.7175 18.0767 18.1875 18.6067C17.6575 19.1367 16.7475 19.1367 16.2175 18.6067C15.6875 18.0767 15.6875 17.1667 16.2175 16.6367C16.7375 16.0967 17.6475 16.0967 18.1875 16.6367Z" fill="#F65229"/>
  <path d="M15.1875 19.6367C15.7175 20.1667 15.7175 21.0767 15.1875 21.6067C14.6575 22.1367 13.7475 22.1367 13.2175 21.6067C12.6875 21.0767 12.6875 20.1667 13.2175 19.6367C13.7375 19.0967 14.6475 19.0967 15.1875 19.6367Z" fill="#FDAE47"/>
</svg>
